<svg xmlns="http://www.w3.org/2000/svg" viewBox="0 0 23.04 23.05"><defs><style>.cls-1{fill:#f6931d;}</style></defs><g id="Layer_2" data-name="Layer 2"><g id="Layer_1-2" data-name="Layer 1"><path class="cls-1" d="M10.45,9.75C9.74,9.36,9.06,9,8.39,8.59,6,7.21,3.55,5.84,1.22,4.31c-.36-.24-.7-.5-1-.77a.43.43,0,0,1,.14-.76,1.38,1.38,0,0,1,.67,0c1.8.41,3.59.84,5.39,1.26.27.07.55.15.82.2a.39.39,0,0,0,.26-.07c.31-.29.6-.6.91-.9a.39.39,0,0,1,.64,0l.52.53a.37.37,0,0,1,0,.58c-.1.11-.22.21-.36.35A7,7,0,0,1,10.1,5a.65.65,0,0,0,.84-.24c.18-.22.4-.41.6-.61a.44.44,0,0,1,.67,0l.47.47a.42.42,0,0,1,0,.67,2.69,2.69,0,0,1-.27.2l0,.09c.54.12,1.08.25,1.63.34.1,0,.25-.09.33-.18.75-.77,1.49-1.55,2.23-2.32.58-.59,1.16-1.19,1.77-1.76A6,6,0,0,1,21.05.08,3.13,3.13,0,0,1,21.8,0,1.34,1.34,0,0,1,23,1.22a3.36,3.36,0,0,1-.34,1.5A7.73,7.73,0,0,1,21,5c-1.19,1.16-2.38,2.32-3.58,3.46a.76.76,0,0,0-.26.85c.12.4.21.82.32,1.27l.29-.27a.43.43,0,0,1,.64,0l.49.5a.42.42,0,0,1,0,.64c-.28.29-.57.57-.85.87a.3.3,0,0,0-.09.21c.08.37.18.74.27,1.12a.49.49,0,0,0,.11.19c.1-.12.18-.25.29-.36a.37.37,0,0,1,.58,0l.54.54a.39.39,0,0,1,0,.61c-.3.3-.59.61-.9.9a.28.28,0,0,0-.08.3c.48,2,1,4,1.42,6a2.4,2.4,0,0,1,.07.65.65.65,0,0,1-.19.41c-.17.18-.4.26-.59,0-.36-.48-.73-.95-1.05-1.45-1.79-2.79-3.41-5.68-5-8.57l-.16-.28-.18.16c-1.45,1.41-2.89,2.83-4.36,4.23a1.78,1.78,0,0,0-.61,1.43c0,.7.09,1.39.14,2.08,0,.12,0,.23,0,.34a1.52,1.52,0,0,1-.78,1.6c-.25.18-.33.16-.43-.13-.35-1-.69-2.07-1-3.1A8.39,8.39,0,0,0,5.55,18,1.1,1.1,0,0,0,5,17.48c-.53-.24-1.08-.42-1.63-.61L.72,15.94c-.26-.09-.29-.18-.12-.41A3.55,3.55,0,0,1,1,15.07a1.1,1.1,0,0,1,.86-.34c.72,0,1.44.12,2.17.15a5.56,5.56,0,0,0,1.22-.07,1.11,1.11,0,0,0,.59-.32l4.53-4.65S10.41,9.79,10.45,9.75Z"/></g></g></svg>