<svg xmlns="http://www.w3.org/2000/svg" viewBox="0 0 20.84 20.84"><defs><style>.cls-1{fill:#e92227;}</style></defs><g id="Layer_2" data-name="Layer 2"><g id="Layer_1-2" data-name="Layer 1"><path class="cls-1" d="M10.46,0A10.42,10.42,0,1,0,20.84,10.49,10.42,10.42,0,0,0,10.46,0Zm5,11.28a1.13,1.13,0,0,1-1.53,0L13,10.76a.78.78,0,0,0-1,.05l-3,2.13A1.82,1.82,0,0,1,8,13.28H3.21l0-.06L8.27,9.56H.51A8.89,8.89,0,0,0,1.25,9a2,2,0,0,1,1.46-.47c3,0,6,0,9.05,0A1.54,1.54,0,0,1,12.87,9l1.19,1.14a.69.69,0,0,0,1,.1l2.57-1.82-1.08-.61h3.82l-1.9,1.34C17.46,9.84,16.44,10.56,15.42,11.28Z"/></g></g></svg>