<svg xmlns="http://www.w3.org/2000/svg" viewBox="0 0 14.39 14.44"><defs><style>.cls-1{fill:#f6931d;}</style></defs><g id="Layer_2" data-name="Layer 2"><g id="Layer_1-2" data-name="Layer 1"><path class="cls-1" d="M.06,8.6C0,8.16,0,8.1.31,7.91c.67-.39,1.33-.77,2-1.14a.38.38,0,0,0,.23-.4,4.34,4.34,0,0,1,0-.51c0-.25.11-.36.35-.38h.27c.43,0,.46,0,.55.48L4,5.78l1.76-1A.4.4,0,0,0,6,4.38c0-.9.07-1.8.15-2.7A2.64,2.64,0,0,1,6.74.3c.31-.41.63-.4.91,0a4.5,4.5,0,0,1,.61,2.38c0,.52,0,1,.05,1.56a.42.42,0,0,0,.12.24L10.69,6c0-.08,0-.13,0-.19s0,0,0-.08c.18-.35.5-.17.76-.19a.29.29,0,0,1,.36.3,5.8,5.8,0,0,1,0,.59.36.36,0,0,0,.22.38c.66.36,1.32.74,2,1.11.37.21.38.26.27.72L12.79,8.3c-1.16-.24-2.31-.48-3.47-.7a5.11,5.11,0,0,0-1-.06.28.28,0,0,0-.19.18c-.1,1.2-.19,2.4-.29,3.61a.26.26,0,0,0,.17.28c.62.32,1.22.65,1.84.94a.58.58,0,0,1,.41.7c0,.08,0,.16,0,.26l-.19,0L8,13c-.37-.09-.37-.09-.46.27s-.23.78-.34,1.17H7.11l-.45-1.52L4,13.52c0-.22,0-.43,0-.64s.11-.15.19-.19c.66-.35,1.32-.71,2-1a.35.35,0,0,0,.23-.39c-.11-1.16-.19-2.33-.29-3.5,0-.07,0-.13,0-.21a6.65,6.65,0,0,0-1.89.21C2.92,8,1.6,8.3.29,8.57Z"/></g></g></svg>