<svg xmlns="http://www.w3.org/2000/svg" viewBox="0 0 16.89 16.89"><defs><style>.cls-1{fill:#0c254d;}.cls-2{fill:#f6931d;}</style></defs><g id="Layer_2" data-name="Layer 2"><g id="Layer_1-2" data-name="Layer 1"><rect class="cls-1" width="16.89" height="16.89" rx="8.45"/><path class="cls-2" d="M8.06,8.09l-.65-.37c-.76-.43-1.53-.86-2.26-1.35l-.33-.24a.13.13,0,0,1,0-.24.41.41,0,0,1,.22,0l1.7.4L7,6.34a.08.08,0,0,0,.08,0L7.41,6a.12.12,0,0,1,.2,0l.17.16a.13.13,0,0,1,0,.19l-.11.11.3.07a.19.19,0,0,0,.26-.07l.19-.2a.14.14,0,0,1,.21,0l.15.15a.13.13,0,0,1,0,.21l-.08.07v0l.51.1s.08,0,.11-.05l.7-.74.56-.55A1.86,1.86,0,0,1,11.41,5a1,1,0,0,1,.24,0,.42.42,0,0,1,.39.38,1,1,0,0,1-.1.48,2.36,2.36,0,0,1-.53.72l-1.13,1.1A.24.24,0,0,0,10.2,8c0,.12.06.26.1.4l.09-.09a.13.13,0,0,1,.2,0l.16.16a.13.13,0,0,1,0,.2l-.27.28a.07.07,0,0,0,0,.06l.09.36,0,.06.09-.11a.13.13,0,0,1,.19,0l.17.17a.13.13,0,0,1,0,.2l-.29.28a.09.09,0,0,0,0,.1l.45,1.89a1.36,1.36,0,0,1,0,.2.26.26,0,0,1-.06.13.11.11,0,0,1-.19,0c-.11-.15-.23-.3-.33-.46C10,10.9,9.52,10,9,9.07L9,9,8.9,9c-.46.44-.91.89-1.38,1.33a.61.61,0,0,0-.19.45c0,.22,0,.44,0,.66v.11a.46.46,0,0,1-.24.5c-.08.06-.11.06-.14,0l-.33-1a2.5,2.5,0,0,0-.15-.38.49.49,0,0,0-.16-.16l-.52-.19L5,10.05c-.08,0-.09-.06,0-.13l.13-.15a.4.4,0,0,1,.27-.11L6,9.71a1.7,1.7,0,0,0,.39,0,.36.36,0,0,0,.18-.1L8,8.12Z"/></g></g></svg>