<svg xmlns="http://www.w3.org/2000/svg" viewBox="0 0 28.02 28.02"><defs><style>.cls-1{fill:#b2b2b2;}.cls-2{fill:#fff;}</style></defs><g id="Layer_2" data-name="Layer 2"><g id="Layer_1-2" data-name="Layer 1"><path class="cls-1" d="M14,28A14,14,0,1,1,28,14,14,14,0,0,1,14,28Z"/><path class="cls-2" d="M13.31,24.84a10.55,10.55,0,0,1-7.42-3.63A1.05,1.05,0,0,1,5.65,20a4.87,4.87,0,0,1,4.51-3.12c2.57,0,5.15-.05,7.73,0a4.72,4.72,0,0,1,4.45,3,1.07,1.07,0,0,1-.22,1.32A11.29,11.29,0,0,1,13.31,24.84Z"/><path class="cls-2" d="M9.29,10.78A4.72,4.72,0,1,1,14,15.55,4.71,4.71,0,0,1,9.29,10.78Z"/></g></g></svg>